<svg xmlns="http://www.w3.org/2000/svg" xmlns:xlink="http://www.w3.org/1999/xlink" version="1.1" id="Layer_1" x="0px" y="0px" viewBox="5.0 -10.0 100.0 135.0" enable-background="new 0 0 100 100" xml:space="preserve" height="100px" width="100px">
<path id="fork2" d="M71.8,65H70c-7.9,0-11.8-3.8-16.7-8.6c-2.2-2.1-4.5-4.4-7.2-6.3c3-2,5.4-4.4,7.6-6.6  C58.5,38.8,62.3,35,70,35h1.8v5.5L90,30L71.8,19.5V25H70c-11.8,0-17.9,6-23.3,11.4C41.8,41.2,37.9,45,30,45h-1.3c-1.7-3-5-5-8.7-5  c-5.5,0-10,4.5-10,10c0,5.5,4.5,10,10,10c3.7,0,6.9-2,8.7-5H30c7.7,0,11.5,3.8,16.3,8.5C51.5,68.6,58,75,70,75h1.8v5.5L90,70  L71.8,59.5V65z M20,56c-3.3,0-6-2.7-6-6s2.7-6,6-6s6,2.7,6,6S23.3,56,20,56z"/>
<text x="0.0" y="117.5" font-size="5.0" font-weight="bold" font-family="Helvetica Neue, Helvetica, Arial-Unicode, Arial, Sans-serif" fill="#000000">Created by Dmitry Baranovskiy</text><text x="0.0" y="122.5" font-size="5.0" font-weight="bold" font-family="Helvetica Neue, Helvetica, Arial-Unicode, Arial, Sans-serif" fill="#000000">from the Noun Project</text></svg>